<svg xmlns="http://www.w3.org/2000/svg" width="1600" height="150" viewBox="0 0 1600 150" role="img" aria-label="footer">
<defs>
  <linearGradient id="fg" x1="0" y1="0" x2="1" y2="0">
    <stop offset="0" stop-color="#12111f"/>
    <stop offset="0.5" stop-color="#0d1117"/>
    <stop offset="1" stop-color="#181019"/>
  </linearGradient>
</defs>
<style>
  .fw{stroke-dasharray:1;stroke-dashoffset:1}
  @keyframes fk{0%,7%{stroke-dashoffset:1;opacity:0}15%{opacity:1;animation-timing-function:ease-out}30%{stroke-dashoffset:0}100%{stroke-dashoffset:0;opacity:1}}@keyframes fk{0%,17%{stroke-dashoffset:1;opacity:0}25%{opacity:1;animation-timing-function:ease-out}40%{stroke-dashoffset:0}100%{stroke-dashoffset:0;opacity:1}}@keyframes fk{0%,27%{stroke-dashoffset:1;opacity:0}35%{opacity:1;animation-timing-function:ease-out}50%{stroke-dashoffset:0}100%{stroke-dashoffset:0;opacity:1}}@keyframes fk{0%,37%{stroke-dashoffset:1;opacity:0}45%{opacity:1;animation-timing-function:ease-out}60%{stroke-dashoffset:0}100%{stroke-dashoffset:0;opacity:1}}@keyframes fk{0%,47%{stroke-dashoffset:1;opacity:0}55%{opacity:1;animation-timing-function:ease-out}70%{stroke-dashoffset:0}100%{stroke-dashoffset:0;opacity:1}}@keyframes fr0{0%,41%{stroke-dashoffset:1;opacity:0}51%{opacity:1;animation-timing-function:ease-out}77%{stroke-dashoffset:0}100%{stroke-dashoffset:0;opacity:1}}@keyframes fr1{0%,59%{stroke-dashoffset:1;opacity:0}69%{opacity:1;animation-timing-function:ease-out}95%{stroke-dashoffset:0}100%{stroke-dashoffset:0;opacity:1}}@keyframes fr2{0%,77%{stroke-dashoffset:1;opacity:0}87%{opacity:1;animation-timing-function:ease-out}114%{stroke-dashoffset:0}100%{stroke-dashoffset:0;opacity:1}}@keyframes fsp{0%,55%{opacity:0}70%,100%{opacity:1}}
</style>
<rect x="2" y="2" width="1596" height="146" rx="26" fill="url(#fg)" stroke="#30363d" stroke-width="1.5"/>
<text x="800.0" y="86" text-anchor="middle" font-family="'Segoe UI',-apple-system,'Helvetica Neue',Arial,sans-serif" font-size="23" font-weight="500" letter-spacing="4.5" fill="#8b949e">WITH GREAT <tspan fill="#E62429">POWER</tspan> COMES GREAT <tspan fill="#E62429">RESPONSIBILITY</tspan></text>
<g class="fw">
  <line x1="1462" y1="115.2" x2="1578.2" y2="139.9" pathLength="1" stroke="#d7dde3" stroke-opacity="0.52" stroke-width="1.3" stroke-linecap="round" style="animation:fk 2.2s ease-out infinite both;animation-delay:0.15s"/><line x1="1470.4" y1="65.7" x2="1579.6" y2="136.6" pathLength="1" stroke="#d7dde3" stroke-opacity="0.51" stroke-width="1.3" stroke-linecap="round" style="animation:fk 2.2s ease-out infinite both;animation-delay:0.37s"/><line x1="1511.5" y1="36.7" x2="1582.1" y2="133.9" pathLength="1" stroke="#E62429" stroke-opacity="0.55" stroke-width="1.3" stroke-linecap="round" style="animation:fk 2.2s ease-out infinite both;animation-delay:0.59s"/><line x1="1551.6" y1="15" x2="1585.2" y2="132.4" pathLength="1" stroke="#d7dde3" stroke-opacity="0.47" stroke-width="1.3" stroke-linecap="round" style="animation:fk 2.2s ease-out infinite both;animation-delay:0.81s"/><line x1="1592.5" y1="11.8" x2="1588.3" y2="132" pathLength="1" stroke="#d7dde3" stroke-opacity="0.53" stroke-width="1.3" stroke-linecap="round" style="animation:fk 2.2s ease-out infinite both;animation-delay:1.03s"/><path d="M 1546.9 133.3 Q 1553.1 127.5 1552.8 119.1 Q 1560.6 116 1563.3 108 Q 1571.4 108 1576.4 101.6 Q 1583.4 104.5 1589.5 100 " pathLength="1" fill="none" stroke="#d7dde3" stroke-opacity="0.40" stroke-width="1.05" stroke-linejoin="round" style="animation:fr0 2.2s ease-out infinite both;animation-delay:0.9s"/><path d="M 1509.7 125.4 Q 1521.5 114.4 1520.9 98.4 Q 1535.8 92.4 1541 77.3 Q 1556.4 77.3 1565.9 65.1 Q 1579.2 70.5 1590.8 62 " pathLength="1" fill="none" stroke="#d7dde3" stroke-opacity="0.45" stroke-width="1.05" stroke-linejoin="round" style="animation:fr1 2.2s ease-out infinite both;animation-delay:1.3s"/><path d="M 1472.6 117.5 Q 1489.9 101.4 1489 77.7 Q 1511 68.9 1518.6 46.5 Q 1541.4 46.5 1555.5 28.6 Q 1575.1 36.6 1592.1 24.1 " pathLength="1" fill="none" stroke="#d7dde3" stroke-opacity="0.50" stroke-width="1.05" stroke-linejoin="round" style="animation:fr2 2.2s ease-out infinite both;animation-delay:1.7000000000000002s"/><g style="animation:fsp 2.2s ease-out infinite both;animation-delay:1.6s"><path d="M 1547.6 90 Q 1541.6 85.8 1538.6 92.8 M 1547.6 91.8 Q 1539.6 87.8 1536.6 96.8 M 1547.6 93.6 Q 1540.6 89.8 1537.6 100.8 M 1547.6 95.4 Q 1543.6 91.8 1540.6 104.8 M 1555.6 90 Q 1561.6 85.8 1564.6 92.8 M 1555.6 91.8 Q 1563.6 87.8 1566.6 96.8 M 1555.6 93.6 Q 1562.6 89.8 1565.6 100.8 M 1555.6 95.4 Q 1559.6 91.8 1562.6 104.8" fill="none" stroke="#E62429" stroke-width="1.4" stroke-linecap="round"/><circle cx="1551.6" cy="91.8" r="5.5" fill="#E62429"/><circle cx="1551.6" cy="84.8" r="3.4" fill="#E62429"/></g>
</g>
</svg>
